<svg width="86" height="94" viewBox="0 0 86 94" fill="none" xmlns="http://www.w3.org/2000/svg">
<path d="M73.125 90.25H16.25V2.75H73.125C77.9375 2.75 81.875 6.6875 81.875 11.5V81.5C81.875 86.3125 77.9375 90.25 73.125 90.25Z" fill="#FF7043"/>
<path d="M11.875 2.75H16.25V90.25H11.875C7.0625 90.25 3.125 86.3125 3.125 81.5V11.5C3.125 6.6875 7.0625 2.75 11.875 2.75Z" fill="#BF360C"/>
<path d="M70.9375 26.8125H27.1875V18.0625H70.9375V26.8125ZM70.9375 31.1875H27.1875V35.5625H70.9375V31.1875Z" fill="#E64A19"/>
<path d="M48.5753 74.4545C46.473 74.4545 44.6596 73.9905 43.1349 73.0625C41.6198 72.125 40.4503 70.8182 39.6264 69.142C38.812 67.4564 38.4048 65.4962 38.4048 63.2614C38.4048 61.0265 38.812 59.0568 39.6264 57.3523C40.4503 55.6383 41.5961 54.303 43.0639 53.3466C44.5412 52.3807 46.2647 51.8977 48.2344 51.8977C49.3707 51.8977 50.4929 52.0871 51.6009 52.4659C52.7088 52.8447 53.7173 53.4602 54.6264 54.3125C55.5355 55.1553 56.2599 56.2727 56.7997 57.6648C57.3395 59.0568 57.6094 60.7708 57.6094 62.8068V64.2273H40.7912V61.3295H54.2003C54.2003 60.0985 53.9541 59 53.4616 58.0341C52.9787 57.0682 52.2874 56.3059 51.3878 55.7472C50.4976 55.1884 49.4465 54.9091 48.2344 54.9091C46.8991 54.9091 45.7438 55.2405 44.7685 55.9034C43.8026 56.5568 43.0592 57.4091 42.5384 58.4602C42.0175 59.5114 41.7571 60.6383 41.7571 61.8409V63.7727C41.7571 65.4205 42.0412 66.8172 42.6094 67.9631C43.187 69.0994 43.9872 69.9659 45.0099 70.5625C46.0327 71.1496 47.2211 71.4432 48.5753 71.4432C49.456 71.4432 50.2514 71.3201 50.9616 71.0739C51.6813 70.8182 52.3016 70.4394 52.8224 69.9375C53.3433 69.4261 53.7457 68.7917 54.0298 68.0341L57.2685 68.9432C56.9276 70.0417 56.3546 71.0076 55.5497 71.8409C54.7448 72.6648 53.7505 73.3087 52.5668 73.7727C51.383 74.2273 50.0526 74.4545 48.5753 74.4545Z" fill="white"/>
</svg>
